<svg xmlns="http://www.w3.org/2000/svg" width="25" height="24" viewBox="0 0 25 24" fill="none">
    <path d="M19.1748 23.0399C17.8874 24.3023 16.4669 24.1055 15.113 23.5103C13.6736 22.9031 12.3576 22.8647 10.8374 23.5103C8.94431 24.3359 7.93955 24.0959 6.7994 23.0399C0.362285 16.3439 1.31241 6.14391 8.62839 5.75991C10.4028 5.85591 11.645 6.75111 12.6902 6.82551C14.2436 6.50631 15.7306 5.59191 17.3933 5.71191C19.391 5.87511 20.885 6.67191 21.8827 8.10471C17.7734 10.6007 18.7472 16.0727 22.5216 17.6087C21.7663 19.6127 20.7971 21.5927 19.1724 23.0567L19.1748 23.0399ZM12.5477 5.68791C12.3553 2.71192 14.7425 0.263925 17.4883 0.0239258C17.866 3.45592 14.4004 6.02391 12.5477 5.68791Z" fill="white"/>
</svg>