<svg xmlns="http://www.w3.org/2000/svg" width="24" height="25" viewBox="0 0 24 25" fill="none">
    <path d="M3.16992 7.93994L11.9999 13.0499L20.7699 7.96991" stroke="#A7A9B7" stroke-width="1.5" stroke-linecap="round" stroke-linejoin="round"/>
    <path d="M12 22.11V13.04" stroke="#A7A9B7" stroke-width="1.5" stroke-linecap="round" stroke-linejoin="round"/>
    <path d="M21.6096 13.33V9.67C21.6096 8.29 20.6196 6.61002 19.4096 5.94002L14.0696 2.98C12.9296 2.34 11.0696 2.34 9.92963 2.98L4.58963 5.94002C3.37963 6.61002 2.38965 8.29 2.38965 9.67V15.33C2.38965 16.71 3.37963 18.39 4.58963 19.06L9.92963 22.02C10.4996 22.34 11.2496 22.5 11.9996 22.5C12.7496 22.5 13.4996 22.34 14.0696 22.02" stroke="#A7A9B7" stroke-width="1.5" stroke-linecap="round" stroke-linejoin="round"/>
    <path d="M19.2 21.9C20.9673 21.9 22.4 20.4673 22.4 18.7C22.4 16.9327 20.9673 15.5 19.2 15.5C17.4327 15.5 16 16.9327 16 18.7C16 20.4673 17.4327 21.9 19.2 21.9Z" stroke="#A7A9B7" stroke-width="1.5" stroke-linecap="round" stroke-linejoin="round"/>
    <path d="M23 22.5L22 21.5" stroke="#A7A9B7" stroke-width="1.5" stroke-linecap="round" stroke-linejoin="round"/>
</svg>