<svg xmlns="http://www.w3.org/2000/svg" width="20" height="18" viewBox="0 0 20 18" fill="none">
    <path d="M0.14502 4.44209V14.1721C0.14502 16.0721 1.49502 16.8521 3.13502 15.9121L5.48502 14.5721C5.99502 14.2821 6.84502 14.2521 7.37502 14.5221L12.625 17.1521C13.155 17.4121 14.005 17.3921 14.515 17.1021L18.845 14.6221C19.395 14.3021 19.855 13.5221 19.855 12.8821V3.15208C19.855 1.25208 18.505 0.472085 16.865 1.41208L14.515 2.75209C14.005 3.04209 13.155 3.07208 12.625 2.80208L7.37502 0.182085C6.84502 -0.0779151 5.99502 -0.0579151 5.48502 0.232085L1.15502 2.71209C0.59502 3.03209 0.14502 3.81209 0.14502 4.44209Z" fill="#FD683D"/>
</svg>