<svg xmlns="http://www.w3.org/2000/svg" width="24" height="24" viewBox="0 0 24 24" fill="none">
    <path d="M24.0001 12.27C24.0001 11.48 23.9286 10.73 23.806 10H12.2606V14.51H18.8711C18.5748 15.99 17.7063 17.24 16.419 18.09V21.09H20.3628C22.6719 19 24.0001 15.92 24.0001 12.27Z" fill="#4285F4"/>
    <path d="M12.2608 24C15.5711 24 18.34 22.92 20.3629 21.09L16.4191 18.09C15.3157 18.81 13.9159 19.25 12.2608 19.25C9.06281 19.25 6.35528 17.14 5.38465 14.29H1.31824V17.38C3.33101 21.3 7.46894 24 12.2608 24Z" fill="#34A853"/>
    <path d="M5.3843 14.2901C5.12887 13.5701 4.99605 12.8001 4.99605 12.0001C4.99605 11.2001 5.13909 10.4301 5.3843 9.71011V6.62012H1.31788C0.480081 8.24011 -0.00012207 10.0601 -0.00012207 12.0001C-0.00012207 13.9401 0.480081 15.7601 1.31788 17.3801L5.3843 14.2901Z" fill="#FBBC05"/>
    <path d="M12.2608 4.74999C14.0692 4.74999 15.6835 5.35999 16.9606 6.54999L20.4549 3.12999C18.3399 1.19 15.5711 0 12.2608 0C7.46894 0 3.33101 2.7 1.31824 6.61999L5.38465 9.70998C6.35528 6.85999 9.06281 4.74999 12.2608 4.74999Z" fill="#EA4335"/>
</svg>