<svg xmlns="http://www.w3.org/2000/svg" width="25" height="24" viewBox="0 0 25 24" fill="none">
    <path d="M20.54 6.31994L14.78 2.28994C13.21 1.18994 10.8 1.24994 9.28999 2.41994L4.27999 6.32994C3.27999 7.10994 2.48999 8.70994 2.48999 9.96994V16.8699C2.48999 19.4199 4.55999 21.4999 7.10999 21.4999H17.89C20.44 21.4999 22.51 19.4299 22.51 16.8799V10.0999C22.51 8.74994 21.64 7.08994 20.54 6.31994ZM13.25 17.4999C13.25 17.9099 12.91 18.2499 12.5 18.2499C12.09 18.2499 11.75 17.9099 11.75 17.4999V14.4999C11.75 14.0899 12.09 13.7499 12.5 13.7499C12.91 13.7499 13.25 14.0899 13.25 14.4999V17.4999Z" fill="#1D272F"/>
</svg>