<svg xmlns="http://www.w3.org/2000/svg" width="24" height="24" viewBox="0 0 24 24" fill="none">
    <path d="M13.389 14.21L10.989 15.54C10.449 15.84 9.99902 16.5999 9.99902 17.2199V19.76C9.99902 20.38 10.439 21.14 10.989 21.44L13.389 22.77C13.899 23.06 14.739 23.06 15.259 22.77L17.659 21.44C18.199 21.14 18.649 20.38 18.649 19.76V17.2199C18.649 16.5999 18.209 15.84 17.659 15.54L15.259 14.21C14.749 13.93 13.909 13.93 13.389 14.21Z" fill="#FD683D"/>
    <path d="M20.5902 10.5496V7.11957C20.5902 5.88957 19.6502 4.52957 18.5002 4.09957L13.5102 2.22957C12.6802 1.91957 11.3202 1.91957 10.4902 2.22957L5.50016 4.10957C4.35016 4.53957 3.41016 5.89957 3.41016 7.11957V14.5496C3.41016 15.7296 4.19016 17.2796 5.14016 17.9896L9.44016 21.1996C10.1402 21.7396 11.0702 21.9996 12.0002 21.9996" stroke="#1D272F" stroke-width="1.5" stroke-linecap="round" stroke-linejoin="round"/>
    <path d="M12.3486 14.4502L16.3286 16.7502L20.2686 14.4602" stroke="#1D272F" stroke-width="1.5" stroke-linecap="round" stroke-linejoin="round"/>
    <path d="M16.3291 20.8203V16.7402" stroke="#1D272F" stroke-width="1.5" stroke-linecap="round" stroke-linejoin="round"/>
    <path d="M15.389 12.21L12.989 13.54C12.449 13.84 11.999 14.5999 11.999 15.2199V17.76C11.999 18.38 12.439 19.14 12.989 19.44L15.389 20.77C15.899 21.06 16.739 21.06 17.259 20.77L19.659 19.44C20.199 19.14 20.649 18.38 20.649 17.76V15.2199C20.649 14.5999 20.209 13.84 19.659 13.54L17.259 12.21C16.749 11.93 15.909 11.93 15.389 12.21Z" stroke="#1D272F" stroke-width="1.5" stroke-linecap="round" stroke-linejoin="round"/>
</svg>