<svg xmlns="http://www.w3.org/2000/svg" width="20" height="20" viewBox="0 0 20 20" fill="none">
    <path d="M7.39998 3.83335C6.73331 0.950017 2.39165 0.941684 1.72498 3.83335C1.33331 5.52502 2.40831 6.95835 3.34165 7.85002C4.02498 8.49169 5.09998 8.49169 5.78331 7.85002C6.71665 6.95835 7.78331 5.52502 7.39998 3.83335ZM4.59165 5.16668C4.13331 5.16668 3.75831 4.79168 3.75831 4.33335C3.75831 3.87502 4.12498 3.50002 4.58331 3.50002H4.59165C5.05831 3.50002 5.42498 3.87502 5.42498 4.33335C5.42498 4.79168 5.05831 5.16668 4.59165 5.16668Z" fill="#1D272F"/>
    <path d="M18.2583 13.8334C17.5917 10.95 13.2333 10.9417 12.5583 13.8334C12.1667 15.525 13.2417 16.9583 14.1833 17.85C14.8667 18.4917 15.95 18.4917 16.6333 17.85C17.575 16.9583 18.65 15.525 18.2583 13.8334ZM15.4417 15.1667C14.9833 15.1667 14.6083 14.7917 14.6083 14.3334C14.6083 13.875 14.975 13.5 15.4333 13.5H15.4417C15.9 13.5 16.275 13.875 16.275 14.3334C16.275 14.7917 15.9 15.1667 15.4417 15.1667Z" fill="#1D272F"/>
    <path d="M9.99991 16.4584H7.76658C6.79991 16.4584 5.95824 15.875 5.62491 14.975C5.28324 14.075 5.53324 13.0834 6.25824 12.4417L12.9166 6.61669C13.3166 6.26669 13.3249 5.79169 13.2082 5.46669C13.0832 5.14169 12.7666 4.79169 12.2332 4.79169H9.99991C9.65824 4.79169 9.37491 4.50835 9.37491 4.16669C9.37491 3.82502 9.65824 3.54169 9.99991 3.54169H12.2332C13.1999 3.54169 14.0416 4.12502 14.3749 5.02502C14.7166 5.92502 14.4666 6.91669 13.7416 7.55835L7.08324 13.3834C6.68324 13.7334 6.67491 14.2084 6.79158 14.5334C6.91658 14.8584 7.23324 15.2084 7.76658 15.2084H9.99991C10.3416 15.2084 10.6249 15.4917 10.6249 15.8334C10.6249 16.175 10.3416 16.4584 9.99991 16.4584Z" fill="#1D272F"/>
</svg>