<svg xmlns="http://www.w3.org/2000/svg" width="33" height="32" viewBox="0 0 33 32" fill="none">
    <path d="M27.9933 11.2667C26.5933 5.10671 21.22 2.33337 16.5 2.33337C16.5 2.33337 16.5 2.33337 16.4867 2.33337C11.78 2.33337 6.39334 5.09337 4.99334 11.2534C3.43334 18.1334 7.64667 23.96 11.46 27.6267C12.8733 28.9867 14.6867 29.6667 16.5 29.6667C18.3133 29.6667 20.1267 28.9867 21.5267 27.6267C25.34 23.96 29.5533 18.1467 27.9933 11.2667ZM16.5 17.9467C14.18 17.9467 12.3 16.0667 12.3 13.7467C12.3 11.4267 14.18 9.54671 16.5 9.54671C18.82 9.54671 20.7 11.4267 20.7 13.7467C20.7 16.0667 18.82 17.9467 16.5 17.9467Z" fill="#1D272F"/>
</svg>