<svg xmlns="http://www.w3.org/2000/svg" width="22" height="22" viewBox="0 0 22 22" fill="none">
    <path d="M18.3333 6.18742C19.7256 6.18742 20.8542 5.0588 20.8542 3.66659C20.8542 2.27437 19.7256 1.14575 18.3333 1.14575C16.9411 1.14575 15.8125 2.27437 15.8125 3.66659C15.8125 5.0588 16.9411 6.18742 18.3333 6.18742Z" fill="white"/>
    <path d="M17.4534 7.47075C16.0142 7.15909 14.8409 5.98575 14.5292 4.54659C14.41 3.98742 14.4009 3.44659 14.5017 2.93325C14.6209 2.36492 14.1992 1.83325 13.6125 1.83325H6.41671C3.88671 1.83325 1.83337 3.88659 1.83337 6.41659V12.7874C1.83337 15.3174 3.88671 17.3708 6.41671 17.3708H7.79171C8.04837 17.3708 8.37837 17.5358 8.52504 17.7374L9.90004 19.5616C10.505 20.3683 11.495 20.3683 12.1 19.5616L13.475 17.7374C13.6492 17.5083 13.915 17.3708 14.2084 17.3708H15.5925C18.1225 17.3708 20.1667 15.3266 20.1667 12.7966V8.38742C20.1667 7.80992 19.635 7.38825 19.0667 7.49825C18.5534 7.58992 18.0125 7.58992 17.4534 7.47075ZM7.33337 10.9999C6.82004 10.9999 6.41671 10.5874 6.41671 10.0833C6.41671 9.57909 6.82004 9.16659 7.33337 9.16659C7.83754 9.16659 8.25004 9.57909 8.25004 10.0833C8.25004 10.5874 7.84671 10.9999 7.33337 10.9999ZM11 10.9999C10.4867 10.9999 10.0834 10.5874 10.0834 10.0833C10.0834 9.57909 10.4867 9.16659 11 9.16659C11.5042 9.16659 11.9167 9.57909 11.9167 10.0833C11.9167 10.5874 11.5134 10.9999 11 10.9999ZM14.6667 10.9999C14.1534 10.9999 13.75 10.5874 13.75 10.0833C13.75 9.57909 14.1534 9.16659 14.6667 9.16659C15.1709 9.16659 15.5834 9.57909 15.5834 10.0833C15.5834 10.5874 15.18 10.9999 14.6667 10.9999Z" fill="white"/>
</svg>