<svg xmlns="http://www.w3.org/2000/svg" width="22" height="22" viewBox="0 0 22 22" fill="none">
    <path d="M12.8334 4.58333C12.8334 3.575 12.0084 2.75 11 2.75C9.99171 2.75 9.16671 3.575 9.16671 4.58333C9.16671 5.59167 9.99171 6.41667 11 6.41667C12.0084 6.41667 12.8334 5.59167 12.8334 4.58333Z" fill="#151B33"/>
    <path d="M12.8334 17.4167C12.8334 16.4084 12.0084 15.5834 11 15.5834C9.99171 15.5834 9.16671 16.4084 9.16671 17.4167C9.16671 18.425 9.99171 19.25 11 19.25C12.0084 19.25 12.8334 18.425 12.8334 17.4167Z" fill="#151B33"/>
    <path d="M12.8334 11C12.8334 9.99163 12.0084 9.16663 11 9.16663C9.99171 9.16663 9.16671 9.99163 9.16671 11C9.16671 12.0083 9.99171 12.8333 11 12.8333C12.0084 12.8333 12.8334 12.0083 12.8334 11Z" fill="#151B33"/>
</svg>