<svg xmlns="http://www.w3.org/2000/svg" width="24" height="25" viewBox="0 0 24 25" fill="none">
    <path d="M12.1596 11.37C12.0596 11.36 11.9396 11.36 11.8296 11.37C9.44957 11.29 7.55957 9.34 7.55957 6.94C7.55957 4.49 9.53957 2.5 11.9996 2.5C14.4496 2.5 16.4396 4.49 16.4396 6.94C16.4296 9.34 14.5396 11.29 12.1596 11.37Z" stroke="#A7A9B7" stroke-width="1.5" stroke-linecap="round" stroke-linejoin="round"/>
    <path d="M7.15973 15.06C4.73973 16.68 4.73973 19.32 7.15973 20.93C9.90973 22.77 14.4197 22.77 17.1697 20.93C19.5897 19.31 19.5897 16.67 17.1697 15.06C14.4297 13.23 9.91973 13.23 7.15973 15.06Z" stroke="#A7A9B7" stroke-width="1.5" stroke-linecap="round" stroke-linejoin="round"/>
</svg>