<svg xmlns="http://www.w3.org/2000/svg" width="25" height="24" viewBox="0 0 25 24" fill="none">
    <path d="M12.6601 10.37C12.5601 10.36 12.4401 10.36 12.3301 10.37C9.95006 10.29 8.06006 8.34 8.06006 5.94C8.06006 3.49 10.0401 1.5 12.5001 1.5C14.9501 1.5 16.9401 3.49 16.9401 5.94C16.9301 8.34 15.0401 10.29 12.6601 10.37Z" stroke="#A7A9B7" stroke-width="1.5" stroke-linecap="round" stroke-linejoin="round"/>
    <path d="M7.65997 14.06C5.23997 15.68 5.23997 18.32 7.65997 19.93C10.41 21.77 14.92 21.77 17.67 19.93C20.09 18.31 20.09 15.67 17.67 14.06C14.93 12.23 10.42 12.23 7.65997 14.06Z" stroke="#A7A9B7" stroke-width="1.5" stroke-linecap="round" stroke-linejoin="round"/>
</svg>