<svg xmlns="http://www.w3.org/2000/svg" width="20" height="20" viewBox="0 0 20 20" fill="none">
    <path d="M9.99996 1.66669C5.40829 1.66669 1.66663 5.40835 1.66663 10C1.66663 14.5917 5.40829 18.3334 9.99996 18.3334C14.5916 18.3334 18.3333 14.5917 18.3333 10C18.3333 5.40835 14.5916 1.66669 9.99996 1.66669ZM13.625 12.975C13.5083 13.175 13.3 13.2834 13.0833 13.2834C12.975 13.2834 12.8666 13.2584 12.7666 13.1917L10.1833 11.65C9.54163 11.2667 9.06663 10.425 9.06663 9.68335V6.26669C9.06663 5.92502 9.34996 5.64169 9.69163 5.64169C10.0333 5.64169 10.3166 5.92502 10.3166 6.26669V9.68335C10.3166 9.98335 10.5666 10.425 10.825 10.575L13.4083 12.1167C13.7083 12.2917 13.8083 12.675 13.625 12.975Z" fill="#FD683D"/>
</svg>