<svg xmlns="http://www.w3.org/2000/svg" width="2" height="38" viewBox="0 0 2 38" fill="none">
    <path fill-rule="evenodd" clip-rule="evenodd" d="M1.25 -3.27835e-08C1.66421 -1.46777e-08 2 0.283553 2 0.633333L2 2.92917C2 3.27895 1.66421 3.5625 1.25 3.5625C0.835786 3.5625 0.5 3.27895 0.5 2.92917L0.5 0.633333C0.5 0.283553 0.835786 -5.08894e-08 1.25 -3.27835e-08ZM1.25 6.8875C1.66421 6.8875 2 7.17105 2 7.52083L2 12.1125C2 12.4623 1.66421 12.7458 1.25 12.7458C0.835786 12.7458 0.499999 12.4623 0.499999 12.1125L0.5 7.52083C0.5 7.17105 0.835786 6.8875 1.25 6.8875ZM1.25 16.0708C1.66421 16.0708 2 16.3544 2 16.7042L2 21.2958C2 21.6456 1.66421 21.9292 1.25 21.9292C0.835786 21.9292 0.499999 21.6456 0.499999 21.2958L0.499999 16.7042C0.499999 16.3544 0.835786 16.0708 1.25 16.0708ZM1.25 25.2542C1.66421 25.2542 2 25.5377 2 25.8875L2 30.4792C2 30.8289 1.66421 31.1125 1.25 31.1125C0.835785 31.1125 0.499999 30.8289 0.499999 30.4792L0.499999 25.8875C0.499999 25.5377 0.835785 25.2542 1.25 25.2542ZM1.25 34.4375C1.66421 34.4375 2 34.7211 2 35.0708L2 37.3667C2 37.7164 1.66421 38 1.25 38C0.835785 38 0.499998 37.7164 0.499998 37.3667L0.499998 35.0708C0.499998 34.7211 0.835785 34.4375 1.25 34.4375Z" fill="#A7A9B7"/>
</svg>